<mxfile host="65bd71144e">
    <diagram id="qWdHprNJuO7f1234GOD2" name="Page-1">
        <mxGraphModel dx="7172" dy="6592" grid="0" gridSize="10" guides="1" tooltips="1" connect="1" arrows="1" fold="1" page="1" pageScale="1" pageWidth="850" pageHeight="1100" background="#CCCCCC" math="0" shadow="0">
            <root>
                <mxCell id="0"/>
                <mxCell id="1" parent="0"/>
                <mxCell id="4" value="²" style="edgeStyle=none;fontStyle=0;fontFamily=Verdana;fontSize=22;shadow=0;labelBorderColor=none;html=1;spacing=3;fontColor=#F0F0F0;" parent="1" source="2" target="3" edge="1">
                    <mxGeometry relative="1" as="geometry"/>
                </mxCell>
                <mxCell id="2" value="site de vente de&amp;nbsp; piece auto&lt;br style=&quot;font-size: 20px;&quot;&gt;type performance/esthetique&amp;nbsp;" style="ellipse;shape=cloud;fillColor=#0050ef;fontStyle=0;fontFamily=Verdana;fontSize=20;shadow=0;labelBorderColor=none;whiteSpace=wrap;html=1;spacing=3;strokeColor=#001DBC;dashed=1;dashPattern=1 1;fillStyle=hachure;fontColor=#F0F0F0;" parent="1" vertex="1">
                    <mxGeometry x="-5950" y="-5132" width="418" height="291" as="geometry"/>
                </mxCell>
                <mxCell id="6" value="" style="edgeStyle=none;fontStyle=0;fontFamily=Verdana;fontSize=22;shadow=0;labelBorderColor=none;html=1;spacing=3;fontColor=#F0F0F0;" parent="1" source="3" edge="1">
                    <mxGeometry relative="1" as="geometry">
                        <mxPoint x="-5259.322580645161" y="-5107" as="targetPoint"/>
                    </mxGeometry>
                </mxCell>
                <mxCell id="14" value="" style="edgeStyle=none;fontStyle=0;fontFamily=Verdana;fontSize=22;shadow=0;labelBorderColor=none;html=1;spacing=3;fontColor=#F0F0F0;" parent="1" source="3" target="13" edge="1">
                    <mxGeometry relative="1" as="geometry"/>
                </mxCell>
                <mxCell id="33" value="" style="edgeStyle=none;fontStyle=0;fontFamily=Verdana;fontSize=22;shadow=0;labelBorderColor=none;html=1;spacing=3;fontColor=#F0F0F0;" parent="1" source="3" target="32" edge="1">
                    <mxGeometry relative="1" as="geometry"/>
                </mxCell>
                <mxCell id="61" style="edgeStyle=none;sketch=0;html=1;exitX=0.25;exitY=1;exitDx=0;exitDy=0;entryX=0.5;entryY=0;entryDx=0;entryDy=0;shadow=0;labelBorderColor=none;fontFamily=Verdana;fontSize=22;fontColor=#F0F0F0;" parent="1" source="3" target="60" edge="1">
                    <mxGeometry relative="1" as="geometry"/>
                </mxCell>
                <mxCell id="3" value="page d'accueil&lt;br style=&quot;font-size: 22px;&quot;&gt;menu principal" style="rounded=1;fillColor=#f0a30a;fontColor=#F0F0F0;strokeColor=#BD7000;fontStyle=0;fontFamily=Verdana;fontSize=22;shadow=0;labelBorderColor=none;whiteSpace=wrap;html=1;spacing=3;" parent="1" vertex="1">
                    <mxGeometry x="-5509" y="-5017" width="220" height="70" as="geometry"/>
                </mxCell>
                <mxCell id="8" value="" style="edgeStyle=none;fontStyle=0;fontFamily=Verdana;fontSize=22;shadow=0;labelBorderColor=none;html=1;spacing=3;fontColor=#F0F0F0;" parent="1" source="5" target="7" edge="1">
                    <mxGeometry relative="1" as="geometry"/>
                </mxCell>
                <mxCell id="48" value="" style="edgeStyle=none;exitX=0.25;exitY=0;exitDx=0;exitDy=0;entryX=0.5;entryY=1;entryDx=0;entryDy=0;fontStyle=0;fontFamily=Verdana;fontSize=22;shadow=0;labelBorderColor=none;html=1;spacing=3;fontColor=#F0F0F0;" parent="1" source="5" target="49" edge="1">
                    <mxGeometry relative="1" as="geometry">
                        <mxPoint x="-5300.097106933594" y="-5626.35401564378" as="targetPoint"/>
                    </mxGeometry>
                </mxCell>
                <mxCell id="5" value="connexion/inscription" style="rounded=1;fillColor=#0050ef;fontColor=#F0F0F0;strokeColor=#001DBC;fontStyle=0;fontFamily=Verdana;fontSize=22;shadow=0;labelBorderColor=none;whiteSpace=wrap;html=1;spacing=3;" parent="1" vertex="1">
                    <mxGeometry x="-5241" y="-5176" width="210" height="60" as="geometry"/>
                </mxCell>
                <mxCell id="10" value="" style="edgeStyle=none;fontStyle=0;fontFamily=Verdana;fontSize=22;shadow=0;labelBorderColor=none;html=1;spacing=3;fontColor=#F0F0F0;" parent="1" source="7" target="9" edge="1">
                    <mxGeometry relative="1" as="geometry"/>
                </mxCell>
                <mxCell id="12" value="" style="edgeStyle=none;fontStyle=0;fontFamily=Verdana;fontSize=22;shadow=0;labelBorderColor=none;html=1;spacing=3;fontColor=#F0F0F0;" parent="1" source="7" target="11" edge="1">
                    <mxGeometry relative="1" as="geometry"/>
                </mxCell>
                <mxCell id="16" value="" style="edgeStyle=none;fontStyle=0;fontFamily=Verdana;fontSize=22;shadow=0;labelBorderColor=none;html=1;spacing=3;fontColor=#F0F0F0;" parent="1" source="7" target="15" edge="1">
                    <mxGeometry relative="1" as="geometry"/>
                </mxCell>
                <mxCell id="7" value="stocker les info utilisateur&lt;br style=&quot;font-size: 22px;&quot;&gt;nom/adresse/ect.." style="rounded=1;fillColor=#0050ef;fontColor=#F0F0F0;strokeColor=#001DBC;fontStyle=0;fontFamily=Verdana;fontSize=22;shadow=0;labelBorderColor=none;whiteSpace=wrap;html=1;spacing=3;" parent="1" vertex="1">
                    <mxGeometry x="-4939" y="-5228" width="239" height="104" as="geometry"/>
                </mxCell>
                <mxCell id="9" value="question/reponce&lt;br style=&quot;font-size: 22px;&quot;&gt;en raport au piece&amp;nbsp;" style="rounded=1;fillColor=#0050ef;fontColor=#F0F0F0;strokeColor=#001DBC;fontStyle=0;fontFamily=Verdana;fontSize=22;shadow=0;labelBorderColor=none;whiteSpace=wrap;html=1;spacing=3;" parent="1" vertex="1">
                    <mxGeometry x="-4632" y="-5357" width="245" height="80" as="geometry"/>
                </mxCell>
                <mxCell id="11" value="avis apres achat" style="rounded=1;fillColor=#0050ef;fontColor=#F0F0F0;strokeColor=#001DBC;fontStyle=0;fontFamily=Verdana;fontSize=22;shadow=0;labelBorderColor=none;whiteSpace=wrap;html=1;spacing=3;" parent="1" vertex="1">
                    <mxGeometry x="-4636" y="-5228" width="245" height="90" as="geometry"/>
                </mxCell>
                <mxCell id="18" value="" style="edgeStyle=none;fontStyle=0;fontFamily=Verdana;fontSize=22;shadow=0;labelBorderColor=none;html=1;spacing=3;fontColor=#F0F0F0;" parent="1" source="13" target="17" edge="1">
                    <mxGeometry relative="1" as="geometry"/>
                </mxCell>
                <mxCell id="13" value="menu pour filtré par voiture" style="rounded=1;fillColor=#f0a30a;fontColor=#F0F0F0;strokeColor=#BD7000;fontStyle=0;fontFamily=Verdana;fontSize=22;shadow=0;labelBorderColor=none;whiteSpace=wrap;html=1;spacing=3;" parent="1" vertex="1">
                    <mxGeometry x="-5139" y="-5022" width="200" height="80" as="geometry"/>
                </mxCell>
                <mxCell id="15" value="historique achat" style="rounded=1;fillColor=#0050ef;fontColor=#F0F0F0;strokeColor=#001DBC;fontStyle=0;fontFamily=Verdana;fontSize=22;shadow=0;labelBorderColor=none;whiteSpace=wrap;html=1;spacing=3;" parent="1" vertex="1">
                    <mxGeometry x="-4924.5" y="-5374" width="210" height="80" as="geometry"/>
                </mxCell>
                <mxCell id="20" value="" style="edgeStyle=none;fontStyle=0;fontFamily=Verdana;fontSize=22;shadow=0;labelBorderColor=none;html=1;spacing=3;fontColor=#F0F0F0;" parent="1" source="17" target="19" edge="1">
                    <mxGeometry relative="1" as="geometry"/>
                </mxCell>
                <mxCell id="21" value="" style="edgeStyle=none;fontStyle=0;fontFamily=Verdana;fontSize=22;shadow=0;labelBorderColor=none;html=1;spacing=3;fontColor=#F0F0F0;" parent="1" source="17" target="19" edge="1">
                    <mxGeometry relative="1" as="geometry"/>
                </mxCell>
                <mxCell id="22" value="" style="edgeStyle=none;fontStyle=0;fontFamily=Verdana;fontSize=22;shadow=0;labelBorderColor=none;html=1;spacing=3;fontColor=#F0F0F0;" parent="1" source="17" target="19" edge="1">
                    <mxGeometry relative="1" as="geometry"/>
                </mxCell>
                <mxCell id="23" value="" style="edgeStyle=none;fontStyle=0;fontFamily=Verdana;fontSize=22;shadow=0;labelBorderColor=none;html=1;spacing=3;fontColor=#F0F0F0;" parent="1" source="17" target="19" edge="1">
                    <mxGeometry relative="1" as="geometry"/>
                </mxCell>
                <mxCell id="24" value="" style="edgeStyle=none;fontStyle=0;fontFamily=Verdana;fontSize=22;shadow=0;labelBorderColor=none;html=1;spacing=3;fontColor=#F0F0F0;" parent="1" source="17" target="19" edge="1">
                    <mxGeometry relative="1" as="geometry"/>
                </mxCell>
                <mxCell id="26" value="" style="edgeStyle=none;fontStyle=0;fontFamily=Verdana;fontSize=22;shadow=0;labelBorderColor=none;html=1;spacing=3;fontColor=#F0F0F0;" parent="1" source="17" target="25" edge="1">
                    <mxGeometry relative="1" as="geometry"/>
                </mxCell>
                <mxCell id="17" value="sous menu pour filtre par&lt;br style=&quot;font-size: 22px;&quot;&gt;&amp;nbsp;type de piece" style="rounded=1;fillColor=#f0a30a;fontColor=#F0F0F0;strokeColor=#BD7000;fontStyle=0;fontFamily=Verdana;fontSize=22;shadow=0;labelBorderColor=none;whiteSpace=wrap;html=1;spacing=3;" parent="1" vertex="1">
                    <mxGeometry x="-4864" y="-5017" width="210" height="85" as="geometry"/>
                </mxCell>
                <mxCell id="29" value="" style="edgeStyle=none;exitX=1;exitY=0.5;exitDx=0;exitDy=0;fontStyle=0;fontFamily=Verdana;fontSize=22;shadow=0;labelBorderColor=none;html=1;spacing=3;fontColor=#F0F0F0;" parent="1" source="19" edge="1">
                    <mxGeometry relative="1" as="geometry">
                        <mxPoint x="-4399" y="-4997" as="targetPoint"/>
                    </mxGeometry>
                </mxCell>
                <mxCell id="19" value="page produit specifique" style="rounded=1;fillColor=#f0a30a;fontColor=#F0F0F0;strokeColor=#BD7000;fontStyle=0;fontFamily=Verdana;fontSize=22;shadow=0;labelBorderColor=none;whiteSpace=wrap;html=1;spacing=3;" parent="1" vertex="1">
                    <mxGeometry x="-4586" y="-5083" width="138" height="86" as="geometry"/>
                </mxCell>
                <mxCell id="28" value="" style="edgeStyle=none;exitX=1;exitY=0.25;exitDx=0;exitDy=0;entryX=0;entryY=0.5;entryDx=0;entryDy=0;fontStyle=0;fontFamily=Verdana;fontSize=22;shadow=0;labelBorderColor=none;html=1;spacing=3;fontColor=#F0F0F0;" parent="1" source="25" target="27" edge="1">
                    <mxGeometry relative="1" as="geometry"/>
                </mxCell>
                <mxCell id="25" value="page produit specifique" style="rounded=1;fillColor=#f0a30a;fontColor=#F0F0F0;strokeColor=#BD7000;fontStyle=0;fontFamily=Verdana;fontSize=22;shadow=0;labelBorderColor=none;whiteSpace=wrap;html=1;spacing=3;" parent="1" vertex="1">
                    <mxGeometry x="-4586" y="-4971" width="139" height="86" as="geometry"/>
                </mxCell>
                <mxCell id="31" value="" style="edgeStyle=none;fontStyle=0;fontFamily=Verdana;fontSize=22;shadow=0;labelBorderColor=none;html=1;spacing=3;fontColor=#F0F0F0;entryX=0;entryY=0.25;entryDx=0;entryDy=0;" parent="1" source="27" edge="1" target="30">
                    <mxGeometry relative="1" as="geometry">
                        <mxPoint x="-3871" y="-4997.631944444445" as="targetPoint"/>
                    </mxGeometry>
                </mxCell>
                <mxCell id="27" value="detaile de la piece&amp;nbsp;&lt;br style=&quot;font-size: 22px;&quot;&gt;prix&lt;br style=&quot;font-size: 22px;&quot;&gt;&lt;br style=&quot;font-size: 22px;&quot;&gt;avis de precedent utilisateur qui on&lt;br style=&quot;font-size: 22px;&quot;&gt;achete la meme piece" style="rounded=1;fillColor=#f0a30a;fontColor=#F0F0F0;strokeColor=#BD7000;fontStyle=0;fontFamily=Verdana;fontSize=22;shadow=0;labelBorderColor=none;whiteSpace=wrap;html=1;spacing=3;" parent="1" vertex="1">
                    <mxGeometry x="-4399" y="-5096" width="240" height="194" as="geometry"/>
                </mxCell>
                <mxCell id="30" value="mise au panier" style="rounded=1;fillColor=#008a00;fontColor=#F0F0F0;strokeColor=#005700;fontStyle=0;fontFamily=Verdana;fontSize=22;shadow=0;labelBorderColor=none;whiteSpace=wrap;html=1;spacing=3;" parent="1" vertex="1">
                    <mxGeometry x="-4067" y="-5014.5" width="220" height="92.5" as="geometry"/>
                </mxCell>
                <mxCell id="57" value="" style="edgeStyle=none;fontFamily=Verdana;fontSize=22;shadow=0;labelBorderColor=none;html=1;spacing=3;fontColor=#F0F0F0;" parent="1" source="32" target="55" edge="1">
                    <mxGeometry relative="1" as="geometry"/>
                </mxCell>
                <mxCell id="32" value="panier achat" style="rounded=1;fillColor=#008a00;fontColor=#F0F0F0;strokeColor=#005700;fontStyle=0;fontFamily=Verdana;fontSize=22;shadow=0;labelBorderColor=none;whiteSpace=wrap;html=1;spacing=3;" parent="1" vertex="1">
                    <mxGeometry x="-5346" y="-4858" width="210" height="80" as="geometry"/>
                </mxCell>
                <mxCell id="37" value="" style="edgeStyle=none;fontStyle=0;fontFamily=Verdana;fontSize=22;shadow=0;labelBorderColor=none;html=1;spacing=3;fontColor=#F0F0F0;" parent="1" source="34" target="36" edge="1">
                    <mxGeometry relative="1" as="geometry"/>
                </mxCell>
                <mxCell id="34" value="verification de cordonée&amp;nbsp;&lt;br style=&quot;font-size: 22px;&quot;&gt;client" style="rounded=1;fillColor=#008a00;fontColor=#F0F0F0;strokeColor=#005700;fontStyle=0;fontFamily=Verdana;fontSize=22;shadow=0;labelBorderColor=none;whiteSpace=wrap;html=1;spacing=3;" parent="1" vertex="1">
                    <mxGeometry x="-4807" y="-4797" width="155" height="80" as="geometry"/>
                </mxCell>
                <mxCell id="39" value="" style="edgeStyle=none;fontStyle=0;fontFamily=Verdana;fontSize=22;shadow=0;labelBorderColor=none;html=1;spacing=3;fontColor=#F0F0F0;" parent="1" source="36" target="38" edge="1">
                    <mxGeometry relative="1" as="geometry"/>
                </mxCell>
                <mxCell id="36" value="moyen de paiment" style="rounded=1;fillColor=#008a00;fontColor=#F0F0F0;strokeColor=#005700;fontStyle=0;fontFamily=Verdana;fontSize=22;shadow=0;labelBorderColor=none;whiteSpace=wrap;html=1;spacing=3;" parent="1" vertex="1">
                    <mxGeometry x="-4547" y="-4797" width="197.5" height="80" as="geometry"/>
                </mxCell>
                <mxCell id="41" value="" style="edgeStyle=none;fontStyle=0;fontFamily=Verdana;fontSize=22;shadow=0;labelBorderColor=none;html=1;spacing=3;fontColor=#F0F0F0;" parent="1" source="38" target="40" edge="1">
                    <mxGeometry relative="1" as="geometry"/>
                </mxCell>
                <mxCell id="38" value="envoie et reception&lt;br style=&quot;font-size: 22px;&quot;&gt;" style="rounded=1;fillColor=#008a00;fontColor=#F0F0F0;strokeColor=#005700;fontStyle=0;fontFamily=Verdana;fontSize=22;shadow=0;labelBorderColor=none;whiteSpace=wrap;html=1;spacing=3;" parent="1" vertex="1">
                    <mxGeometry x="-4242.75" y="-4778" width="182.25" height="95" as="geometry"/>
                </mxCell>
                <mxCell id="54" value="" style="edgeStyle=none;fontFamily=Verdana;fontSize=22;shadow=0;labelBorderColor=none;html=1;spacing=3;fontColor=#F0F0F0;" parent="1" target="27" edge="1">
                    <mxGeometry relative="1" as="geometry">
                        <Array as="points">
                            <mxPoint x="-4270" y="-4887"/>
                        </Array>
                        <mxPoint x="-4263.446721311476" y="-4861" as="sourcePoint"/>
                    </mxGeometry>
                </mxCell>
                <mxCell id="40" value="possibiliter de donne un avis du produit" style="rounded=1;fillColor=#008a00;fontColor=#F0F0F0;strokeColor=#005700;fontStyle=0;fontFamily=Verdana;fontSize=22;shadow=0;labelBorderColor=none;whiteSpace=wrap;html=1;spacing=3;" parent="1" vertex="1">
                    <mxGeometry x="-4333" y="-4864" width="161.25" height="70" as="geometry"/>
                </mxCell>
                <mxCell id="45" value="" style="curved=1;endArrow=classic;exitX=0;exitY=1;exitDx=0;exitDy=0;fontStyle=0;fontFamily=Verdana;fontSize=22;entryX=1;entryY=0;entryDx=0;entryDy=0;shadow=0;labelBorderColor=none;html=1;spacing=3;fontColor=#F0F0F0;" parent="1" target="32" edge="1" source="30">
                    <mxGeometry width="50" height="50" relative="1" as="geometry">
                        <mxPoint x="-3871" y="-4951" as="sourcePoint"/>
                        <mxPoint x="-5001" y="-4766" as="targetPoint"/>
                        <Array as="points">
                            <mxPoint x="-4055" y="-4892"/>
                            <mxPoint x="-4470" y="-4871"/>
                            <mxPoint x="-4538" y="-4858"/>
                            <mxPoint x="-4554" y="-4855"/>
                            <mxPoint x="-4567" y="-4849"/>
                            <mxPoint x="-4570" y="-4842"/>
                            <mxPoint x="-4574" y="-4829"/>
                            <mxPoint x="-4563" y="-4819"/>
                            <mxPoint x="-4526" y="-4805"/>
                            <mxPoint x="-4510" y="-4866"/>
                            <mxPoint x="-4639" y="-4861"/>
                        </Array>
                    </mxGeometry>
                </mxCell>
                <mxCell id="50" value="" style="edgeStyle=none;exitX=1;exitY=0;exitDx=0;exitDy=0;entryX=0.5;entryY=1;entryDx=0;entryDy=0;fontStyle=0;fontFamily=Verdana;fontSize=22;shadow=0;labelBorderColor=none;html=1;spacing=3;fontColor=#F0F0F0;" parent="1" source="49" target="51" edge="1">
                    <mxGeometry relative="1" as="geometry">
                        <mxPoint x="-5224.845958709717" y="-5834.5433559417725" as="targetPoint"/>
                    </mxGeometry>
                </mxCell>
                <mxCell id="52" value="" style="edgeStyle=none;exitX=0;exitY=0;exitDx=0;exitDy=0;entryX=0.5;entryY=1;entryDx=0;entryDy=0;fontStyle=0;fontFamily=Verdana;fontSize=22;shadow=0;labelBorderColor=none;html=1;spacing=3;fontColor=#F0F0F0;" parent="1" source="49" target="53" edge="1">
                    <mxGeometry relative="1" as="geometry">
                        <mxPoint x="-5704.391399383545" y="-5831.1520137786865" as="targetPoint"/>
                    </mxGeometry>
                </mxCell>
                <mxCell id="49" value="blog utilisateur" style="fillColor=#76608a;fontColor=#F0F0F0;strokeColor=#432D57;fontStyle=0;fontFamily=Verdana;fontSize=22;shadow=0;labelBorderColor=none;whiteSpace=wrap;html=1;spacing=3;rounded=1;" parent="1" vertex="1">
                    <mxGeometry x="-5496" y="-5278" width="184" height="98" as="geometry"/>
                </mxCell>
                <mxCell id="51" value="conseil entre utilisateur" style="fillColor=#76608a;fontColor=#F0F0F0;strokeColor=#432D57;fontStyle=0;fontFamily=Verdana;fontSize=22;shadow=0;labelBorderColor=none;whiteSpace=wrap;html=1;spacing=3;rounded=1;" parent="1" vertex="1">
                    <mxGeometry x="-5384" y="-5412" width="172" height="86" as="geometry"/>
                </mxCell>
                <mxCell id="53" value="tuto entre utilisateur" style="fillColor=#76608a;fontColor=#F0F0F0;strokeColor=#432D57;fontStyle=0;fontFamily=Verdana;fontSize=22;shadow=0;labelBorderColor=none;whiteSpace=wrap;html=1;spacing=3;rounded=1;" parent="1" vertex="1">
                    <mxGeometry x="-5708" y="-5412" width="222" height="76" as="geometry"/>
                </mxCell>
                <mxCell id="58" value="" style="edgeStyle=none;fontFamily=Verdana;fontSize=22;shadow=0;labelBorderColor=none;html=1;spacing=3;fontColor=#F0F0F0;" parent="1" source="55" target="34" edge="1">
                    <mxGeometry relative="1" as="geometry"/>
                </mxCell>
                <mxCell id="55" value="verifier contenu du panier" style="fontFamily=Verdana;fontSize=22;labelBorderColor=none;fillColor=#008a00;fontColor=#F0F0F0;strokeColor=#005700;rounded=1;glass=0;shadow=0;whiteSpace=wrap;html=1;spacing=3;" parent="1" vertex="1">
                    <mxGeometry x="-5031" y="-4797" width="188" height="85" as="geometry"/>
                </mxCell>
                <mxCell id="63" style="edgeStyle=none;sketch=0;html=1;exitX=0.25;exitY=1;exitDx=0;exitDy=0;entryX=0.5;entryY=0;entryDx=0;entryDy=0;shadow=0;labelBorderColor=none;fontFamily=Verdana;fontSize=22;fontColor=#F0F0F0;fillColor=#fa6800;strokeColor=#C73500;" parent="1" source="60" target="62" edge="1">
                    <mxGeometry relative="1" as="geometry"/>
                </mxCell>
                <mxCell id="60" value="contact personne physique" style="whiteSpace=wrap;html=1;rounded=1;shadow=0;glass=0;dashed=1;dashPattern=1 1;labelBorderColor=none;fillStyle=hachure;fontFamily=Verdana;fontSize=22;fillColor=#fa6800;strokeColor=#C73500;fontColor=#F0F0F0;" parent="1" vertex="1">
                    <mxGeometry x="-5622" y="-4800" width="233" height="98" as="geometry"/>
                </mxCell>
                <mxCell id="66" style="edgeStyle=none;sketch=0;html=1;exitX=1;exitY=1;exitDx=0;exitDy=0;entryX=0;entryY=0.5;entryDx=0;entryDy=0;shadow=0;labelBorderColor=none;fontFamily=Verdana;fontSize=22;fontColor=#F0F0F0;fillColor=#fa6800;strokeColor=#C73500;" parent="1" source="62" edge="1">
                    <mxGeometry relative="1" as="geometry">
                        <mxPoint x="-5360" y="-4502.5" as="targetPoint"/>
                    </mxGeometry>
                </mxCell>
                <mxCell id="67" style="edgeStyle=none;sketch=0;html=1;exitX=1;exitY=0;exitDx=0;exitDy=0;entryX=0;entryY=0.5;entryDx=0;entryDy=0;shadow=0;labelBorderColor=none;fontFamily=Verdana;fontSize=22;fontColor=#F0F0F0;fillColor=#fa6800;strokeColor=#C73500;" parent="1" source="62" target="64" edge="1">
                    <mxGeometry relative="1" as="geometry"/>
                </mxCell>
                <mxCell id="62" value="probleme commande" style="whiteSpace=wrap;html=1;rounded=1;shadow=0;glass=0;dashed=1;dashPattern=1 1;labelBorderColor=none;sketch=0;fillStyle=hachure;fontFamily=Verdana;fontSize=22;fillColor=#fa6800;strokeColor=#C73500;fontColor=#F0F0F0;" parent="1" vertex="1">
                    <mxGeometry x="-5651" y="-4645" width="207" height="104" as="geometry"/>
                </mxCell>
                <mxCell id="64" value="mail" style="whiteSpace=wrap;html=1;rounded=1;shadow=0;glass=0;dashed=1;dashPattern=1 1;labelBorderColor=none;sketch=0;fillStyle=hachure;fontFamily=Verdana;fontSize=22;fillColor=#fa6800;strokeColor=#C73500;fontColor=#F0F0F0;" parent="1" vertex="1">
                    <mxGeometry x="-5360" y="-4671" width="173" height="87" as="geometry"/>
                </mxCell>
                <mxCell id="65" value="telephone" style="whiteSpace=wrap;html=1;rounded=1;shadow=0;glass=0;dashed=1;dashPattern=1 1;labelBorderColor=none;sketch=0;fillStyle=hachure;fontFamily=Verdana;fontSize=22;fillColor=#fa6800;strokeColor=#C73500;fontColor=#F0F0F0;" parent="1" vertex="1">
                    <mxGeometry x="-5360" y="-4563" width="171" height="87" as="geometry"/>
                </mxCell>
                <mxCell id="68" style="edgeStyle=none;html=1;exitX=0.75;exitY=1;exitDx=0;exitDy=0;fontSize=22;fontFamily=Verdana;fontColor=#F0F0F0;" edge="1" parent="1" source="40" target="40">
                    <mxGeometry relative="1" as="geometry"/>
                </mxCell>
            </root>
        </mxGraphModel>
    </diagram>
</mxfile>